<svg width="118" height="19" viewBox="0 0 118 19" fill="none" xmlns="http://www.w3.org/2000/svg">
<path d="M12.848 1.2L6.92 7.608L13.4 18H10.184L5.072 9.624L3.344 11.52V18H0.608V1.2H3.344V7.92L9.512 1.2H12.848ZM14.3176 18L20.4616 1.2H23.4856L29.6296 18H26.7496L25.3576 14.016H18.5656L17.1496 18H14.3176ZM19.3576 11.832H24.5896L21.9496 4.392L19.3576 11.832ZM31.7799 18V1.2H37.3239C38.5079 1.2 39.5239 1.384 40.3719 1.752C41.2199 2.12 41.8759 2.656 42.3399 3.36C42.8039 4.064 43.0359 4.944 43.0359 6C43.0359 7.232 42.7079 8.2 42.0519 8.904C41.4119 9.608 40.5239 10.088 39.3879 10.344L44.1159 18H40.8759L36.6759 10.8H34.5159V18H31.7799ZM34.5159 8.496H37.2759C38.0439 8.496 38.6439 8.392 39.0759 8.184C39.5239 7.976 39.8359 7.688 40.0119 7.32C40.1879 6.936 40.2759 6.496 40.2759 6C40.2759 5.488 40.1879 5.048 40.0119 4.68C39.8359 4.296 39.5239 4.008 39.0759 3.816C38.6439 3.608 38.0439 3.504 37.2759 3.504H34.5159V8.496ZM46.3814 18V1.2H49.5974L54.7334 12.312L59.7734 1.2H63.0134V18H60.2774V6.072L55.7654 15.768H53.6294L49.1174 6.072V18H46.3814ZM66.233 18V1.2H68.969V18H66.233ZM86.9221 18.288L85.2421 16.656C84.5221 17.184 83.7221 17.592 82.8421 17.88C81.9781 18.152 81.0581 18.288 80.0821 18.288C78.9141 18.288 77.8101 18.08 76.7701 17.664C75.7461 17.248 74.8421 16.664 74.0581 15.912C73.2901 15.144 72.6901 14.232 72.2581 13.176C71.8261 12.104 71.6101 10.912 71.6101 9.6C71.6101 8.288 71.8261 7.104 72.2581 6.048C72.6901 4.976 73.2901 4.064 74.0581 3.312C74.8421 2.544 75.7461 1.952 76.7701 1.536C77.7941 1.12 78.8981 0.912 80.0821 0.912C81.2661 0.912 82.3701 1.12 83.3941 1.536C84.4181 1.936 85.3141 2.52 86.0821 3.288C86.8661 4.04 87.4741 4.952 87.9061 6.024C88.3541 7.096 88.5781 8.288 88.5781 9.6C88.5781 10.64 88.4341 11.608 88.1461 12.504C87.8741 13.384 87.4821 14.168 86.9701 14.856L88.6741 16.464L86.9221 18.288ZM74.4181 9.6C74.4181 10.928 74.6741 12.064 75.1861 13.008C75.6981 13.936 76.3861 14.64 77.2501 15.12C78.1141 15.6 79.0581 15.84 80.0821 15.84C80.7381 15.84 81.3461 15.768 81.9061 15.624C82.4661 15.464 82.9701 15.224 83.4181 14.904L80.8261 12.384L82.5781 10.56L85.0501 12.984C85.2901 12.552 85.4661 12.056 85.5781 11.496C85.7061 10.936 85.7701 10.304 85.7701 9.6C85.7701 8.24 85.5141 7.096 85.0021 6.168C84.4901 5.24 83.8021 4.544 82.9381 4.08C82.0741 3.6 81.1221 3.36 80.0821 3.36C79.0581 3.36 78.1141 3.6 77.2501 4.08C76.3861 4.56 75.6981 5.264 75.1861 6.192C74.6741 7.12 74.4181 8.256 74.4181 9.6ZM97.6946 18.288C96.1746 18.288 94.9346 17.984 93.9746 17.376C93.0306 16.768 92.3346 15.96 91.8866 14.952C91.4546 13.928 91.2386 12.824 91.2386 11.64V1.2H93.9506V11.664C93.9506 13.088 94.2866 14.136 94.9586 14.808C95.6466 15.48 96.5746 15.816 97.7426 15.816C98.9106 15.816 99.8306 15.48 100.503 14.808C101.191 14.136 101.535 13.088 101.535 11.664V1.2H104.247V11.64C104.247 12.904 104.055 13.96 103.671 14.808C103.287 15.656 102.767 16.336 102.111 16.848C101.471 17.36 100.759 17.728 99.9746 17.952C99.2066 18.176 98.4466 18.288 97.6946 18.288ZM107.342 18V1.2H117.998V3.504H110.078V7.992H116.918V10.272H110.078V15.696H117.998V18H107.342Z" fill="black"/>
</svg>
